<svg xmlns="http://www.w3.org/2000/svg" xmlns:xlink="http://www.w3.org/1999/xlink" width="300" zoomAndPan="magnify"
  viewBox="0 0 224.87999 225" height="300" preserveAspectRatio="xMidYMid meet" version="1.0">
  <defs>
    <clipPath id="0df3e38eef">
      <path
        d="M 20.554688 105.527344 L 78.316406 105.527344 L 78.316406 119.472656 L 20.554688 119.472656 Z M 20.554688 105.527344 "
        clip-rule="nonzero" />
    </clipPath>
    <clipPath id="e4ad93d487">
      <path
        d="M 3.339844 101.730469 L 61.140625 101.730469 L 61.140625 123.269531 L 3.339844 123.269531 Z M 3.339844 101.730469 "
        clip-rule="nonzero" />
    </clipPath>
    <clipPath id="1b814a874a">
      <path
        d="M 32.21875 101.730469 C 16.269531 101.730469 3.339844 106.550781 3.339844 112.5 C 3.339844 118.449219 16.269531 123.269531 32.21875 123.269531 C 48.167969 123.269531 61.097656 118.449219 61.097656 112.5 C 61.097656 106.550781 48.167969 101.730469 32.21875 101.730469 Z M 32.21875 101.730469 "
        clip-rule="nonzero" />
    </clipPath>
    <clipPath id="b7fd9e4e03">
      <path
        d="M 146.5625 105.523438 L 204.320312 105.523438 L 204.320312 119.464844 L 146.5625 119.464844 Z M 146.5625 105.523438 "
        clip-rule="nonzero" />
    </clipPath>
    <clipPath id="e8e3a7acd6">
      <path
        d="M 69.886719 69.949219 L 154.992188 69.949219 L 154.992188 155.050781 L 69.886719 155.050781 Z M 69.886719 69.949219 "
        clip-rule="nonzero" />
    </clipPath>
    <clipPath id="814db0052d">
      <path
        d="M 112.441406 69.949219 C 88.9375 69.949219 69.886719 89 69.886719 112.5 C 69.886719 136 88.9375 155.050781 112.441406 155.050781 C 135.941406 155.050781 154.992188 136 154.992188 112.5 C 154.992188 89 135.941406 69.949219 112.441406 69.949219 Z M 112.441406 69.949219 "
        clip-rule="nonzero" />
    </clipPath>
    <clipPath id="c7f19320e4">
      <path
        d="M 163.734375 101.71875 L 221.535156 101.71875 L 221.535156 123.257812 L 163.734375 123.257812 Z M 163.734375 101.71875 "
        clip-rule="nonzero" />
    </clipPath>
    <clipPath id="572a768e0e">
      <path
        d="M 192.65625 123.257812 C 208.605469 123.257812 221.535156 118.4375 221.535156 112.488281 C 221.535156 106.539062 208.605469 101.71875 192.65625 101.71875 C 176.707031 101.71875 163.777344 106.539062 163.777344 112.488281 C 163.777344 118.4375 176.707031 123.257812 192.65625 123.257812 Z M 192.65625 123.257812 "
        clip-rule="nonzero" />
    </clipPath>
  </defs>
  <g clip-path="url(#0df3e38eef)">
    <path fill="currentColor"
      d="M 20.554688 105.527344 L 78.289062 105.527344 L 78.289062 119.472656 L 20.554688 119.472656 Z M 20.554688 105.527344 "
      fill-opacity="1" fill-rule="nonzero" />
  </g>
  <g clip-path="url(#e4ad93d487)">
    <g clip-path="url(#1b814a874a)">
      <path fill="currentColor"
        d="M 3.339844 101.730469 L 61.058594 101.730469 L 61.058594 123.269531 L 3.339844 123.269531 Z M 3.339844 101.730469 "
        fill-opacity="1" fill-rule="nonzero" />
    </g>
  </g>
  <g clip-path="url(#b7fd9e4e03)">
    <path fill="currentColor"
      d="M 204.320312 119.464844 L 146.585938 119.464844 L 146.585938 105.523438 L 204.320312 105.523438 Z M 204.320312 119.464844 "
      fill-opacity="1" fill-rule="nonzero" />
  </g>
  <g clip-path="url(#e8e3a7acd6)">
    <g clip-path="url(#814db0052d)">
      <path stroke-linecap="butt" transform="matrix(0.7496, 0, 0, 0.7496, 69.88827, 69.948285)" fill="none"
        stroke-linejoin="miter"
        d="M 56.7678 0.00124575 C 25.412531 0.00124575 -0.00206936 25.415846 -0.00206936 56.765904 C -0.00206936 88.115962 25.412531 113.530562 56.7678 113.530562 C 88.117858 113.530562 113.532458 88.115962 113.532458 56.765904 C 113.532458 25.415846 88.117858 0.00124575 56.7678 0.00124575 Z M 56.7678 0.00124575 "
        stroke="currentColor" stroke-width="60" stroke-opacity="1" stroke-miterlimit="4" />
    </g>
  </g>
  <g clip-path="url(#c7f19320e4)">
    <g clip-path="url(#572a768e0e)">
      <path fill="currentColor"
        d="M 221.535156 123.257812 L 163.816406 123.257812 L 163.816406 101.71875 L 221.535156 101.71875 Z M 221.535156 123.257812 "
        fill-opacity="1" fill-rule="nonzero" />
    </g>
  </g>
</svg>